<svg width="15" height="15" viewBox="0 0 15 15" fill="none" xmlns="http://www.w3.org/2000/svg">
<path d="M13.3 10.5L12.3 9.5C12.4222 9.2 12.5139 8.90833 12.575 8.625C12.6361 8.34167 12.6667 8.04444 12.6667 7.73333C12.6667 6.44444 12.2111 5.33333 11.3 4.4C10.3889 3.46667 9.28889 3 8 3C7.68889 3 7.38889 3.025 7.1 3.075C6.81111 3.125 6.52222 3.21111 6.23333 3.33333L5.23333 2.33333C5.65556 2.11111 6.09722 1.94444 6.55833 1.83333C7.01944 1.72222 7.5 1.66667 8 1.66667C8.82222 1.66667 9.59722 1.82222 10.325 2.13333C11.0528 2.44444 11.6889 2.875 12.2333 3.425C12.7778 3.975 13.2083 4.61667 13.525 5.35C13.8417 6.08333 14 6.87778 14 7.73333C14 8.23333 13.9389 8.71389 13.8167 9.175C13.6944 9.63611 13.5222 10.0778 13.3 10.5ZM11.8 1.96667C11.6778 1.84444 11.6167 1.68889 11.6167 1.5C11.6167 1.31111 11.6778 1.15556 11.8 1.03333C11.9222 0.911111 12.0778 0.85 12.2667 0.85C12.4556 0.85 12.6111 0.911111 12.7333 1.03333L14.6333 2.93333C14.7556 3.05556 14.8167 3.21111 14.8167 3.4C14.8167 3.58889 14.7556 3.74444 14.6333 3.86667C14.5111 3.98889 14.3556 4.05 14.1667 4.05C13.9778 4.05 13.8222 3.98889 13.7 3.86667L11.8 1.96667ZM8 13.6667C7.17778 13.6667 6.40278 13.5111 5.675 13.2C4.94722 12.8889 4.31111 12.4667 3.76667 11.9333C3.22222 11.4 2.79167 10.7722 2.475 10.05C2.15833 9.32778 2 8.55556 2 7.73333C2 7.04444 2.10278 6.39722 2.30833 5.79167C2.51389 5.18611 2.81111 4.63333 3.2 4.13333L2.63333 3.56667L2.3 3.9C2.17778 4.02222 2.02222 4.08333 1.83333 4.08333C1.64444 4.08333 1.48889 4.02222 1.36667 3.9C1.24444 3.77778 1.18333 3.62222 1.18333 3.43333C1.18333 3.24444 1.24444 3.08889 1.36667 2.96667L1.7 2.63333L0.933333 1.86667C0.811111 1.74444 0.75 1.58889 0.75 1.4C0.75 1.21111 0.811111 1.05556 0.933333 0.933333C1.05556 0.811111 1.21111 0.75 1.4 0.75C1.58889 0.75 1.74444 0.811111 1.86667 0.933333L14.1333 13.2C14.2556 13.3222 14.3167 13.4778 14.3167 13.6667C14.3167 13.8556 14.2556 14.0111 14.1333 14.1333C14.0111 14.2556 13.8556 14.3167 13.6667 14.3167C13.4778 14.3167 13.3222 14.2556 13.2 14.1333L11.5667 12.5C11.0667 12.8667 10.5139 13.1528 9.90833 13.3583C9.30278 13.5639 8.66667 13.6667 8 13.6667ZM8 12.35C8.46667 12.35 8.92222 12.2778 9.36667 12.1333C9.81111 11.9889 10.2222 11.7889 10.6 11.5333L4.13333 5.1C3.87778 5.48889 3.68056 5.90833 3.54167 6.35833C3.40278 6.80833 3.33333 7.26667 3.33333 7.73333C3.33333 9.02222 3.78889 10.1139 4.7 11.0083C5.61111 11.9028 6.71111 12.35 8 12.35Z" fill="#FF3B30"/>
</svg>
